<svg xmlns="http://www.w3.org/2000/svg" xmlns:xlink="http://www.w3.org/1999/xlink" width="48" zoomAndPan="magnify" viewBox="0 0 36 36.000001" height="48" preserveAspectRatio="xMidYMid meet" version="1.0"><defs><clipPath id="424ebe0687"><path d="M 1.90625 3.746094 L 34.011719 3.746094 L 34.011719 31.472656 L 1.90625 31.472656 Z M 1.90625 3.746094 " clip-rule="nonzero"/></clipPath></defs><g clip-path="url(#424ebe0687)"><path fill="#0071bc" d="M 9.824219 3.757812 C 6.667969 3.914062 3.695312 6.078125 2.617188 9.09375 C 1.609375 11.363281 2.007812 13.867188 1.925781 16.269531 C 1.914062 20.886719 1.992188 25.503906 1.925781 30.125 C 2.015625 30.464844 1.71875 31.933594 2.132812 31.328125 C 2.949219 29.828125 4.425781 28.808594 6.121094 28.65625 C 9.9375 28.339844 13.777344 28.507812 17.605469 28.464844 C 20.378906 28.4375 23.160156 28.523438 25.933594 28.417969 C 28.554688 27.96875 31.332031 26.765625 32.609375 24.25 C 33.613281 22.550781 34.125 20.578125 33.992188 18.601562 C 33.949219 16.179688 34.09375 13.75 33.886719 11.335938 C 33.554688 8.585938 32.203125 5.730469 29.585938 4.539062 C 27.339844 3.402344 24.789062 3.851562 22.375 3.757812 C 18.191406 3.757812 14.007812 3.757812 9.824219 3.757812 Z M 9.824219 3.757812 " fill-opacity="1" fill-rule="nonzero"/></g><path fill="#ffffff" d="M 9.683594 8.222656 C 8.652344 8.226562 7.621094 8.238281 6.589844 8.226562 L 6.589844 24.160156 L 10.414062 24.160156 C 10.425781 22.425781 10.4375 20.691406 10.453125 18.957031 C 11.675781 20.691406 12.902344 22.425781 14.128906 24.160156 C 15.648438 24.148438 17.167969 24.183594 18.683594 24.125 C 17.363281 22.398438 15.996094 20.707031 14.652344 19.003906 C 14.332031 18.753906 14.585938 18.6875 14.871094 18.628906 C 16.429688 18.28125 17.640625 16.980469 18.105469 15.46875 C 18.496094 14.007812 18.433594 12.371094 17.726562 11.015625 C 16.96875 9.46875 15.34375 8.472656 13.65625 8.34375 C 12.332031 8.238281 11.007812 8.222656 9.683594 8.222656 Z M 19.378906 8.226562 L 19.378906 11.675781 C 20.8125 11.675781 22.246094 11.675781 23.679688 11.675781 C 24.253906 11.722656 24.941406 11.582031 25.441406 11.796875 C 23.558594 15.921875 21.613281 20.015625 19.722656 24.132812 C 21.1875 24.175781 22.660156 24.152344 24.128906 24.160156 C 25.980469 19.882812 27.828125 15.605469 29.679688 11.332031 C 29.714844 10.304688 29.683594 9.261719 29.695312 8.226562 Z M 10.441406 11.800781 C 11.347656 11.855469 12.28125 11.746094 13.160156 12.011719 C 13.992188 12.257812 14.582031 13.109375 14.480469 13.984375 C 14.574219 14.882812 13.980469 15.730469 13.160156 16.03125 L 13.039062 16.074219 C 12.183594 16.273438 11.289062 16.191406 10.417969 16.242188 L 10.417969 12.558594 C 10.433594 12.316406 10.382812 12 10.441406 11.800781 Z M 10.441406 11.800781 " fill-opacity="1" fill-rule="nonzero"/></svg>