<svg xmlns="http://www.w3.org/2000/svg" xmlns:xlink="http://www.w3.org/1999/xlink" width="48" zoomAndPan="magnify" viewBox="0 0 36 36.000001" height="48" preserveAspectRatio="xMidYMid meet" version="1.0"><defs><clipPath id="19258f2d41"><path d="M 1.082031 9.515625 L 34.652344 9.515625 L 34.652344 25.570312 L 1.082031 25.570312 Z M 1.082031 9.515625 " clip-rule="nonzero"/></clipPath></defs><g clip-path="url(#19258f2d41)"><path fill="#cc0000" d="M 22.539062 12.445312 L 24.316406 12.445312 L 24.316406 22.425781 L 24.308594 22.425781 C 24.3125 22.488281 24.316406 22.554688 24.316406 22.621094 C 24.316406 24.222656 23.132812 25.523438 21.65625 25.570312 L 20.601562 25.570312 L 20.601562 24.023438 L 20.839844 24.023438 C 21.777344 24.023438 22.539062 23.304688 22.539062 22.425781 Z M 22.539062 11.421875 L 24.316406 11.421875 L 24.316406 9.515625 L 22.539062 9.515625 Z M 7.261719 22.035156 L 11.96875 12.511719 L 9.753906 12.511719 L 6.523438 19.796875 L 3.296875 12.511719 L 1.082031 12.511719 L 5.789062 22.035156 Z M 18.988281 21.65625 C 19.78125 21.207031 20.4375 20.550781 20.890625 19.765625 C 21.035156 19.507812 21.160156 19.238281 21.261719 18.957031 L 19.28125 18.957031 C 18.746094 20.109375 17.683594 20.894531 16.457031 20.894531 C 14.820312 20.894531 13.472656 19.492188 13.292969 17.6875 L 21.53125 17.6875 C 21.542969 17.554688 21.550781 17.417969 21.550781 17.28125 C 21.550781 16.992188 21.527344 16.710938 21.480469 16.4375 C 21.074219 14.054688 18.980469 12.238281 16.457031 12.238281 C 13.648438 12.238281 11.367188 14.496094 11.367188 17.28125 C 11.367188 20.0625 13.648438 22.324219 16.457031 22.324219 C 17.378906 22.324219 18.242188 22.082031 18.988281 21.65625 Z M 19.558594 16.4375 L 13.359375 16.4375 C 13.695312 14.847656 14.957031 13.667969 16.457031 13.667969 C 17.960938 13.667969 19.222656 14.847656 19.558594 16.4375 Z M 32.898438 17.457031 C 32.417969 17.664062 31.933594 17.804688 31.460938 17.898438 C 30.777344 18.035156 30.121094 18.074219 29.542969 18.105469 C 29.148438 18.125 28.460938 18.113281 27.96875 18.304688 C 27.460938 18.503906 27.316406 18.964844 27.390625 19.429688 C 27.707031 21.382812 30.472656 21.117188 31.726562 20.339844 C 32.753906 19.699219 33.074219 18.671875 32.898438 17.457031 Z M 34.652344 15.554688 L 34.652344 21.988281 L 32.898438 21.988281 L 32.898438 21.171875 C 32.3125 21.652344 31.785156 21.964844 31.164062 22.160156 C 30.171875 22.472656 28.957031 22.550781 27.957031 22.269531 C 26.492188 21.859375 25.171875 20.757812 25.332031 19.027344 C 25.449219 17.75 26.09375 17.066406 26.988281 16.796875 C 28.320312 16.398438 30.273438 16.789062 31.578125 16.472656 C 32.246094 16.308594 32.898438 16.054688 32.898438 15.214844 C 32.898438 14.375 31.773438 13.695312 30.382812 13.695312 C 29.75 13.695312 29.167969 13.835938 28.726562 14.070312 C 28.121094 14.390625 27.867188 14.789062 27.867188 15.472656 L 25.863281 15.472656 C 25.863281 14.949219 25.878906 14.605469 26.113281 14.164062 C 26.875 12.703125 28.820312 12.226562 30.3125 12.226562 C 31.921875 12.226562 33.328125 12.757812 34.078125 13.546875 C 34.648438 14.152344 34.652344 14.753906 34.652344 15.554688 Z M 34.652344 15.554688 " fill-opacity="1" fill-rule="evenodd"/></g></svg>